<?xml version="1.0" encoding="UTF-8"?>
<svg id="logo_v01-09" data-name="logo v01-09" xmlns="http://www.w3.org/2000/svg" viewBox="0 0 230 160">
  <defs>
    <style>
      .cls-1 {
        fill: #f2f2f2;
      }
    </style>
  </defs>
  <path id="Path_11" data-name="Path 11" class="cls-1" d="M107.509,115.166h-19.35l-8.637-23.075-3.147-9.391-3.013,9.62-8.5,22.84601h-18.55299l-4.886-74.83702h14.529l2.076,47.98,.536,13.112,3.95-11.68,9.642-26.625h10.378l10.175,28.23,3.281,9.963,.268-11.68,2.21-49.3h13.994l-4.953,74.83701Z"/>
  <g id="Group_16" data-name="Group 16">
    <rect id="Rectangle_35" data-name="Rectangle 35" class="cls-1" x="81.763" y="143.815" width="5.319" height="4.164"/>
    <path id="Path_16" data-name="Path 16" class="cls-1" d="M75.856,147.974v-4.16901H23.856c-3.47767,.10144-6.37921-2.63535-6.481-6.11301V22.308c.10179-3.47766,3.00333-6.21445,6.481-6.113H206.17299c3.47768-.10145,6.37921,2.63534,6.481,6.113v50.944h-24.33499c-.62497,.01525-1.15483-.45646-1.21201-1.079-.03665-1.78549-.3445-3.55504-.91299-5.248-.692-1.858-1.64101-4.52-2.927-6.078-1.19449-1.43748-2.61021-2.67564-4.194-3.668-4.89345-3.09389-10.70903-4.39351-16.45399-3.677-2.68327,.281-5.30214,1.00092-7.752,2.131-2.01422,.7957-3.78204,2.11019-5.12401,3.81,0-1.205-.548-7.278-.548-7.278h-13.435v85.52301c-.10179,3.47766-3.00333,6.21445-6.481,6.11301h-36.48199v4.16901h-5.647v3.49001h50.25c3.03238,.08299,5.56084-2.30196,5.655-5.334v-63.94803c.26663-3.40056,1.0815-6.73562,2.41299-9.876,2.04201-3.7,4.978-8.241,9.60899-10.478,9.478-4.577,16.147-2.012,17.965-1.117,6.892,3.393,9.21201,12.541,9.10001,19.345-.00044,.0778,.03186,.1522,.089,.205,.06332,.05952,.14708,.09246,.23399,.092h32.35901c3.032,.08299,5.5603-2.30135,5.655-5.333V13.571c-.09416-3.03205-2.62262-5.41699-5.655-5.334H15.988c-3.73602-.10205-6.85107,2.83639-6.967,6.572V144.89299c.11647,3.73521,3.23136,6.67305,6.967,6.571H81.503v-3.49001l-5.647,.00002Z"/>
    <rect id="Rectangle_36" data-name="Rectangle 36" class="cls-1" x="81.763" y="153.174" width="5.319" height="2.981"/>
    <path id="Path_17" data-name="Path 17" class="cls-1" d="M223.39,0H6.61C3.05594-.09294,.09809,2.71008,0,6.264V153.73599c.09809,3.55392,3.05594,6.35695,6.61,6.26401H81.654v-3.827h-5.619v-3.007H16.463c-4.69693,.11761-8.60441-3.58553-8.739-8.282V14.818c.13459-4.69647,4.04208-8.39961,8.739-8.282H214.319c3.99513-.09969,7.31856,3.05027,7.433,7.045v61.436c-.11497,3.99434-3.43825,7.14369-7.433,7.044h-32.2c-.5654,.00517-1.11058-.21003-1.52-.6-.39427-.37096-.61423-.89071-.606-1.432,.108-6.814-2.35201-14.96-8.088-17.8-5.075-2.51-11.7-1.066-16.218,1.123-4.153,2.016-6.875,6.266-8.783,9.742-1.18422,2.9014-1.92583,5.96425-2.2,9.086v63.94399c-.11444,3.99474-3.43787,7.14468-7.433,7.045h-44.379v3.007h-5.619v3.82401h57.691c3.55406,.09294,6.51192-2.71008,6.61-6.26401v-37.64499h.08501l.37399-37.167c0-3.12,1.951-5.633,4.33701-7.523,3.364-2.664,9.828-3.75,13.616-1.316,1.54034,1.06142,2.69756,2.59103,3.3,4.362,.69876,1.85928,1.06894,3.8259,1.09399,5.812v6.261c.01852,.66608,.57289,1.19136,1.239,1.174h47.77c3.55482,.09349,6.51344-2.71029,6.61099-6.265V6.264c-.0981-3.55392-3.05594-6.35694-6.61-6.264Z"/>
    <path id="Path_18" data-name="Path 18" class="cls-1" d="M86.993,151.96899v-.505h-5.319v.505h-5.322v1.2h5.319v-1.183h5.31899v1.183h5.319v-1.2h-5.31599Z"/>
  </g>
</svg>